<svg width="160" height="53" viewBox="0 0 160 53" fill="none" xmlns="http://www.w3.org/2000/svg">
<path d="M147.257 0H12.7428C12.2614 0 11.78 0 11.2853 0C10.8708 0 10.4697 0.01325 10.0552 0.01325C9.15928 0.03975 8.26341 0.09275 7.38091 0.25175C6.48504 0.41075 5.65603 0.67575 4.84038 1.0865C4.03811 1.49725 3.30269 2.014 2.67424 2.65C2.03243 3.27275 1.49758 4.0015 1.09644 4.7965C0.681932 5.60475 0.414508 6.42625 0.254053 7.314C0.0935985 8.1885 0.0401137 9.07625 0.0133712 9.964C0.0133712 10.3748 0 10.7855 0 11.183C0 11.66 0 12.1503 0 12.6272V40.3595C0 40.8498 0 41.3268 0 41.8037C0 42.2145 0.0133712 42.612 0.0267424 43.0228C0.0534849 43.9105 0.10697 44.7983 0.267424 45.6728C0.427879 46.5605 0.681932 47.3952 1.10981 48.1903C1.51095 48.9852 2.0458 49.7008 2.68761 50.3235C3.31606 50.9595 4.05148 51.4895 4.85375 51.887C5.6694 52.2978 6.49841 52.5628 7.39428 52.7218C8.27678 52.8808 9.18603 52.9338 10.0685 52.9603C10.4697 52.9868 10.8708 53 11.2853 53C11.78 53 12.2614 53 12.7428 53H147.257C147.739 53 148.22 53 148.701 53C149.102 53 149.53 53 149.931 52.9868C150.827 52.9603 151.723 52.9073 152.606 52.7483C153.502 52.5893 154.331 52.3243 155.16 51.9135C155.962 51.516 156.684 50.986 157.326 50.35C157.968 49.7273 158.489 48.9985 158.904 48.2168C159.318 47.4085 159.585 46.587 159.733 45.6993C159.893 44.8248 159.947 43.937 159.987 43.0493C159.987 42.6385 159.987 42.241 159.987 41.8302C160 41.3533 160 40.8763 160 40.386V12.6405C160 12.1503 160 11.6733 159.987 11.1962C159.987 10.7855 159.987 10.388 159.987 9.97725C159.96 9.0895 159.906 8.20175 159.733 7.32725C159.585 6.4395 159.318 5.618 158.904 4.80975C158.489 4.01475 157.954 3.286 157.326 2.66325C156.697 2.0405 155.962 1.5105 155.16 1.09975C154.331 0.689 153.502 0.424 152.606 0.265C151.723 0.106 150.827 0.053 149.931 0.0265C149.53 0.0265 149.102 0.01325 148.701 0.01325C148.233 0 147.739 0 147.257 0Z" fill="#B7B7B7"/>
<path d="M11.2865 51.8473C10.8854 51.8473 10.4842 51.8473 10.0831 51.834C9.33432 51.8075 8.45182 51.7678 7.58269 51.622C6.76705 51.4763 6.045 51.2378 5.36307 50.8933C4.66776 50.5488 4.03932 50.085 3.4911 49.5418C2.94288 48.9985 2.48826 48.389 2.12723 47.6868C1.77958 47.0243 1.5389 46.2955 1.40519 45.4873C1.24473 44.5995 1.20462 43.6853 1.17788 42.9963C1.1645 42.718 1.16451 41.7905 1.16451 41.7905V11.183C1.16451 11.183 1.17788 10.2688 1.17788 10.0038C1.20462 9.31477 1.24473 8.40052 1.40519 7.52602C1.55227 6.70452 1.79295 5.98902 2.1406 5.32652C2.50163 4.63752 2.95625 4.01477 3.50447 3.47152C4.05269 2.91502 4.68114 2.46452 5.36307 2.12002C6.045 1.77552 6.78042 1.53702 7.56932 1.40452C8.47856 1.23227 9.3878 1.19252 10.0831 1.17927L11.2865 1.16602H148.703L149.919 1.17927C150.601 1.19252 151.524 1.23227 152.406 1.39127C153.209 1.53702 153.944 1.76227 154.639 2.12002C155.321 2.46452 155.95 2.92827 156.498 3.47152C157.046 4.01477 157.501 4.63752 157.862 5.32652C158.209 6.00227 158.437 6.71777 158.584 7.51277C158.744 8.34752 158.784 9.20877 158.811 10.017C158.811 10.388 158.811 10.7988 158.811 11.1963C158.825 11.6998 158.825 12.1635 158.825 12.6405V40.3728C158.825 40.8498 158.825 41.3268 158.811 41.8038C158.811 42.241 158.811 42.6253 158.811 43.036C158.784 43.8178 158.731 44.679 158.584 45.4873C158.45 46.2955 158.209 47.0243 157.862 47.7C157.501 48.389 157.046 49.0118 156.498 49.5418C155.95 50.0983 155.321 50.5488 154.626 50.8933C153.931 51.2378 153.222 51.4763 152.393 51.622C151.537 51.781 150.655 51.8208 149.893 51.834C149.505 51.8473 149.09 51.8473 148.689 51.8473H147.245H11.2865Z" fill="#000001"/>
<path d="M33.1214 26.8977C33.0812 23.254 36.1299 21.4785 36.277 21.399C34.5521 18.908 31.8778 18.5635 30.9419 18.537C28.6955 18.2985 26.516 19.862 25.3794 19.862C24.2161 19.862 22.4511 18.5502 20.5524 18.59C18.1055 18.6297 15.819 20.0342 14.5755 22.2072C11.9948 26.646 13.9203 33.165 16.394 36.7557C17.6375 38.518 19.0816 40.479 20.9803 40.3995C22.8389 40.32 23.5342 39.2335 25.7672 39.2335C27.9868 39.2335 28.6286 40.3995 30.5675 40.3597C32.5598 40.3332 33.8167 38.5975 35.0067 36.822C36.4374 34.808 37.0124 32.8205 37.0391 32.7277C36.9723 32.7145 33.1615 31.2702 33.1214 26.8977Z" fill="white"/>
<path d="M29.4694 16.1784C30.4722 14.9462 31.1541 13.2634 30.9536 11.5542C29.5095 11.6204 27.7044 12.5479 26.6614 13.7537C25.7388 14.8137 24.9231 16.5627 25.1371 18.2057C26.755 18.3249 28.4264 17.3974 29.4694 16.1784Z" fill="white"/>
<path d="M56.56 35.9606H50.2354L48.7111 40.4126H46.0369L52.0272 23.9561H54.8084L60.7987 40.4126H58.0709L56.56 35.9606ZM50.8906 33.9068H55.9048L53.4311 26.6856H53.3643L50.8906 33.9068Z" fill="white"/>
<path d="M73.7545 34.4101C73.7545 38.1333 71.7354 40.5316 68.7002 40.5316C66.9753 40.5316 65.6114 39.7631 64.8894 38.4381H64.8359V44.3741H62.3489V28.4078H64.7557V30.4086H64.7958C65.4911 29.1233 66.9619 28.2886 68.6467 28.2886C71.7354 28.2886 73.7545 30.6868 73.7545 34.4101ZM71.2006 34.4101C71.2006 31.9853 69.9303 30.3821 68.0049 30.3821C66.1062 30.3821 64.8225 32.0118 64.8225 34.4101C64.8225 36.8216 66.1062 38.4513 68.0049 38.4513C69.9303 38.4513 71.2006 36.8613 71.2006 34.4101Z" fill="white"/>
<path d="M87.0751 34.4101C87.0751 38.1333 85.0561 40.5316 82.0208 40.5316C80.2959 40.5316 78.9321 39.7631 78.21 38.4381H78.1565V44.3741H75.6829V28.4078H78.0897V30.4086H78.1298C78.8251 29.1233 80.2959 28.2886 81.9807 28.2886C85.0561 28.2886 87.0751 30.6868 87.0751 34.4101ZM84.5212 34.4101C84.5212 31.9853 83.251 30.3821 81.3255 30.3821C79.4268 30.3821 78.1432 32.0118 78.1432 34.4101C78.1432 36.8216 79.4268 38.4513 81.3255 38.4513C83.2643 38.4513 84.5212 36.8613 84.5212 34.4101Z" fill="white"/>
<path d="M95.8835 35.828C96.0707 37.4577 97.6619 38.531 99.8547 38.531C101.954 38.531 103.452 37.4577 103.452 35.987C103.452 34.715 102.542 33.9465 100.39 33.4165L98.2368 32.8997C95.1882 32.171 93.7708 30.7532 93.7708 28.461C93.7708 25.6255 96.2713 23.6777 99.8146 23.6777C103.318 23.6777 105.725 25.6255 105.805 28.461H103.291C103.144 26.818 101.767 25.8242 99.7745 25.8242C97.7822 25.8242 96.405 26.8312 96.405 28.2887C96.405 29.4547 97.2741 30.1305 99.4135 30.6605L101.245 31.111C104.655 31.906 106.072 33.2707 106.072 35.669C106.072 38.743 103.599 40.6775 99.6675 40.6775C95.9905 40.6775 93.5034 38.796 93.343 35.8147H95.8835V35.828Z" fill="white"/>
<path d="M111.449 25.5728V28.4083H113.749V30.356H111.449V36.9678C111.449 38.0013 111.904 38.4783 112.92 38.4783C113.174 38.4783 113.575 38.4385 113.736 38.4253V40.3598C113.455 40.426 112.907 40.479 112.359 40.479C109.912 40.479 108.949 39.5648 108.949 37.246V30.3693H107.184V28.4215H108.949V25.5728H111.449Z" fill="white"/>
<path d="M115.071 34.4102C115.071 30.634 117.318 28.2622 120.808 28.2622C124.324 28.2622 126.544 30.634 126.544 34.4102C126.544 38.1997 124.324 40.5582 120.808 40.5582C117.304 40.5582 115.071 38.1997 115.071 34.4102ZM124.03 34.4102C124.03 31.8265 122.827 30.2895 120.821 30.2895C118.815 30.2895 117.612 31.8265 117.612 34.4102C117.612 37.0072 118.802 38.531 120.821 38.531C122.84 38.531 124.03 37.0072 124.03 34.4102Z" fill="white"/>
<path d="M128.619 28.4084H130.986V30.4489H131.04C131.414 29.0974 132.524 28.2759 133.954 28.2759C134.316 28.2759 134.61 28.3289 134.81 28.3686V30.6741C134.61 30.5946 134.182 30.5284 133.7 30.5284C132.096 30.5284 131.106 31.6016 131.106 33.2844V40.3996H128.619V28.4084Z" fill="white"/>
<path d="M146.255 36.888C145.921 39.061 143.782 40.5582 141.041 40.5582C137.524 40.5582 135.331 38.2262 135.331 34.4632C135.331 30.7002 137.524 28.2622 140.934 28.2622C144.277 28.2622 146.389 30.5412 146.389 34.185V35.033H137.845V35.1787C137.845 37.2325 139.142 38.5707 141.108 38.5707C142.485 38.5707 143.568 37.9215 143.902 36.888H146.255ZM137.858 33.2972H143.915C143.862 31.4555 142.672 30.2497 140.947 30.2497C139.236 30.263 137.992 31.4952 137.858 33.2972Z" fill="white"/>
</svg>
